<?xml version="1.0" encoding="UTF-8" standalone="no"?>
<svg
   width="32"
   height="32"
   viewBox="0 0 32 32"
   version="1.1"
   id="svg1"
   xmlns="http://www.w3.org/2000/svg"
   xmlns:svg="http://www.w3.org/2000/svg">
  <defs
     id="defs1" />
  <g
     id="layer1"
     transform="translate(-68)">
    <path
       id="x"
       style="fill:#000000"
       d="M 84,0 A 16,16 0 0 0 68,16 16,16 0 0 0 84,32 16,16 0 0 0 100,16 16,16 0 0 0 84,0 Z m 0,4 A 12,12 0 0 1 96,16 12,12 0 0 1 84,28 12,12 0 0 1 72,16 12,12 0 0 1 84,4 Z" />
  </g>
</svg>
