<?xml version="1.0" encoding="UTF-8" standalone="no"?>
<svg
   width="168"
   height="32"
   viewBox="0 0 168 32"
   version="1.1"
   id="svg1"
   xmlns="http://www.w3.org/2000/svg"
   xmlns:svg="http://www.w3.org/2000/svg">
  <defs id="defs1" />
  <g id="layer1">
    <path
       style="fill:#000000"
       d="M 0,32 16,0 32,32 28,32 16,8 4,32"
       id="a" />
    <path
       style="fill:#000000"
       d="m 134,32 16,-32 16,32 h -4 L 150,8 138,32"
       id="m" />
    <path
       d="m 34,0 h 4 L 50,16 62,0 h 4 V 32 H 62 V 6 L 50,22 38,6 v 26 h -4 z"
       style="fill:#000000"
       id="o" />
    <path
       id="x"
       style="fill:#000000"
       d="M 84 0 A 16 16 0 0 0 68 16 A 16 16 0 0 0 84 32 A 16 16 0 0 0 100 16 A 16 16 0 0 0 84 0 z M 84 4 A 12 12 0 0 1 96 16 A 12 12 0 0 1 84 28 A 12 12 0 0 1 72 16 A 12 12 0 0 1 84 4 z " />
    <path
       d="m 100,0 h 5 l 11,13 11,-13 h 5 L 118.5,16 132,32 h -5 L 116,19 105,32 h -5 l 13.5,-16 z"
       style="fill:#000000"
       id="a2" />
  </g>
</svg>
